<mxfile host="app.diagrams.net" modified="2023-01-25T14:39:29.362Z" agent="5.0 (Windows NT 10.0; Win64; x64) AppleWebKit/537.36 (KHTML, like Gecko) Chrome/109.0.0.0 Safari/537.36" etag="i_XqwZgphJ3kpd-I0yyT" version="20.8.11" type="github">
  <diagram id="vyfidrr0zJRHGpo-zAWb" name="Page-1">
    <mxGraphModel dx="875" dy="451" grid="1" gridSize="10" guides="1" tooltips="1" connect="1" arrows="1" fold="1" page="1" pageScale="1" pageWidth="850" pageHeight="1100" math="0" shadow="0">
      <root>
        <mxCell id="0" />
        <mxCell id="1" parent="0" />
        <mxCell id="TNHnhr0WjGsh2HYXYVDI-2" value="" style="rounded=0;whiteSpace=wrap;html=1;rotation=90;" parent="1" vertex="1">
          <mxGeometry x="-10" y="250" width="200" height="100" as="geometry" />
        </mxCell>
        <mxCell id="TNHnhr0WjGsh2HYXYVDI-3" value="" style="rounded=0;whiteSpace=wrap;html=1;rotation=90;" parent="1" vertex="1">
          <mxGeometry x="660" y="170" width="200" height="100" as="geometry" />
        </mxCell>
        <mxCell id="TNHnhr0WjGsh2HYXYVDI-4" value="Buyer" style="text;html=1;strokeColor=none;fillColor=none;align=center;verticalAlign=middle;whiteSpace=wrap;rounded=0;" parent="1" vertex="1">
          <mxGeometry x="60" y="280" width="60" height="30" as="geometry" />
        </mxCell>
        <mxCell id="TNHnhr0WjGsh2HYXYVDI-6" value="" style="whiteSpace=wrap;html=1;aspect=fixed;" parent="1" vertex="1">
          <mxGeometry x="203" y="110" width="454.58" height="454.58" as="geometry" />
        </mxCell>
        <mxCell id="TNHnhr0WjGsh2HYXYVDI-7" value="Controller" style="rounded=0;whiteSpace=wrap;html=1;" parent="1" vertex="1">
          <mxGeometry x="330" y="215.42" width="190" height="60" as="geometry" />
        </mxCell>
        <mxCell id="TNHnhr0WjGsh2HYXYVDI-8" value="Service" style="rounded=0;whiteSpace=wrap;html=1;" parent="1" vertex="1">
          <mxGeometry x="330" y="300.42" width="190" height="60" as="geometry" />
        </mxCell>
        <mxCell id="TNHnhr0WjGsh2HYXYVDI-10" value="DAO" style="rounded=0;whiteSpace=wrap;html=1;" parent="1" vertex="1">
          <mxGeometry x="330" y="375.42" width="190" height="60" as="geometry" />
        </mxCell>
        <mxCell id="TNHnhr0WjGsh2HYXYVDI-11" value="shopirent" style="shape=cylinder3;whiteSpace=wrap;html=1;boundedLbl=1;backgroundOutline=1;size=15;" parent="1" vertex="1">
          <mxGeometry x="401.5" y="465" width="60" height="80" as="geometry" />
        </mxCell>
        <mxCell id="TNHnhr0WjGsh2HYXYVDI-13" value="" style="endArrow=classic;html=1;rounded=0;entryX=0.25;entryY=0;entryDx=0;entryDy=0;exitX=0.25;exitY=1;exitDx=0;exitDy=0;" parent="1" source="TNHnhr0WjGsh2HYXYVDI-8" target="TNHnhr0WjGsh2HYXYVDI-10" edge="1">
          <mxGeometry width="50" height="50" relative="1" as="geometry">
            <mxPoint x="360" y="315.42" as="sourcePoint" />
            <mxPoint x="410" y="265.41999999999996" as="targetPoint" />
          </mxGeometry>
        </mxCell>
        <mxCell id="TNHnhr0WjGsh2HYXYVDI-15" value="" style="endArrow=classic;html=1;rounded=0;entryX=0.214;entryY=0.007;entryDx=0;entryDy=0;entryPerimeter=0;" parent="1" target="TNHnhr0WjGsh2HYXYVDI-8" edge="1">
          <mxGeometry width="50" height="50" relative="1" as="geometry">
            <mxPoint x="370" y="275.41999999999996" as="sourcePoint" />
            <mxPoint x="370" y="295.42" as="targetPoint" />
          </mxGeometry>
        </mxCell>
        <mxCell id="TNHnhr0WjGsh2HYXYVDI-17" value="" style="endArrow=classic;html=1;rounded=0;entryX=0.75;entryY=1;entryDx=0;entryDy=0;exitX=0.75;exitY=0;exitDx=0;exitDy=0;" parent="1" source="TNHnhr0WjGsh2HYXYVDI-8" target="TNHnhr0WjGsh2HYXYVDI-7" edge="1">
          <mxGeometry width="50" height="50" relative="1" as="geometry">
            <mxPoint x="380" y="285.41999999999996" as="sourcePoint" />
            <mxPoint x="380.6600000000001" y="310.84" as="targetPoint" />
          </mxGeometry>
        </mxCell>
        <mxCell id="TNHnhr0WjGsh2HYXYVDI-18" value="" style="endArrow=classic;html=1;rounded=0;entryX=0.75;entryY=1;entryDx=0;entryDy=0;exitX=0.75;exitY=0;exitDx=0;exitDy=0;" parent="1" source="TNHnhr0WjGsh2HYXYVDI-10" target="TNHnhr0WjGsh2HYXYVDI-8" edge="1">
          <mxGeometry width="50" height="50" relative="1" as="geometry">
            <mxPoint x="470" y="385.42" as="sourcePoint" />
            <mxPoint x="470" y="360.42" as="targetPoint" />
          </mxGeometry>
        </mxCell>
        <mxCell id="TNHnhr0WjGsh2HYXYVDI-19" value="" style="endArrow=classic;html=1;rounded=0;entryX=-0.029;entryY=0.61;entryDx=0;entryDy=0;exitX=0.25;exitY=1;exitDx=0;exitDy=0;entryPerimeter=0;" parent="1" source="TNHnhr0WjGsh2HYXYVDI-10" target="TNHnhr0WjGsh2HYXYVDI-11" edge="1">
          <mxGeometry width="50" height="50" relative="1" as="geometry">
            <mxPoint x="387.5" y="370.42" as="sourcePoint" />
            <mxPoint x="387.5" y="385.42" as="targetPoint" />
            <Array as="points">
              <mxPoint x="378" y="514.4200000000001" />
            </Array>
          </mxGeometry>
        </mxCell>
        <mxCell id="TNHnhr0WjGsh2HYXYVDI-20" value="" style="endArrow=classic;html=1;rounded=0;entryX=0.824;entryY=0.999;entryDx=0;entryDy=0;exitX=1;exitY=0;exitDx=0;exitDy=52.5;entryPerimeter=0;exitPerimeter=0;" parent="1" source="TNHnhr0WjGsh2HYXYVDI-11" target="TNHnhr0WjGsh2HYXYVDI-10" edge="1">
          <mxGeometry width="50" height="50" relative="1" as="geometry">
            <mxPoint x="387.5" y="445.42" as="sourcePoint" />
            <mxPoint x="403.26" y="524.22" as="targetPoint" />
            <Array as="points">
              <mxPoint x="487" y="518.4200000000001" />
            </Array>
          </mxGeometry>
        </mxCell>
        <mxCell id="TNHnhr0WjGsh2HYXYVDI-23" value="Authenticaiton" style="rounded=0;whiteSpace=wrap;html=1;" parent="1" vertex="1">
          <mxGeometry x="370" y="130" width="110" height="60" as="geometry" />
        </mxCell>
        <mxCell id="TNHnhr0WjGsh2HYXYVDI-24" value="" style="endArrow=classic;html=1;rounded=0;entryX=0.214;entryY=0.007;entryDx=0;entryDy=0;entryPerimeter=0;" parent="1" edge="1">
          <mxGeometry width="50" height="50" relative="1" as="geometry">
            <mxPoint x="395" y="189.99999999999997" as="sourcePoint" />
            <mxPoint x="395.6600000000001" y="215.41999999999993" as="targetPoint" />
          </mxGeometry>
        </mxCell>
        <mxCell id="TNHnhr0WjGsh2HYXYVDI-25" value="" style="endArrow=classic;html=1;rounded=0;exitX=0.686;exitY=-0.006;exitDx=0;exitDy=0;exitPerimeter=0;" parent="1" source="TNHnhr0WjGsh2HYXYVDI-7" edge="1">
          <mxGeometry width="50" height="50" relative="1" as="geometry">
            <mxPoint x="460" y="210" as="sourcePoint" />
            <mxPoint x="460" y="190" as="targetPoint" />
          </mxGeometry>
        </mxCell>
        <mxCell id="TNHnhr0WjGsh2HYXYVDI-31" value="" style="endArrow=classic;html=1;rounded=0;entryX=0;entryY=0.5;entryDx=0;entryDy=0;exitX=0.5;exitY=0;exitDx=0;exitDy=0;" parent="1" source="TNHnhr0WjGsh2HYXYVDI-2" target="TNHnhr0WjGsh2HYXYVDI-23" edge="1">
          <mxGeometry width="50" height="50" relative="1" as="geometry">
            <mxPoint x="380" y="285.41999999999996" as="sourcePoint" />
            <mxPoint x="380.6600000000001" y="310.84000000000003" as="targetPoint" />
            <Array as="points">
              <mxPoint x="260" y="300" />
              <mxPoint x="260" y="160" />
            </Array>
          </mxGeometry>
        </mxCell>
        <mxCell id="TNHnhr0WjGsh2HYXYVDI-33" value="" style="endArrow=classic;html=1;rounded=0;entryX=1;entryY=0.5;entryDx=0;entryDy=0;exitX=0.5;exitY=1;exitDx=0;exitDy=0;" parent="1" source="TNHnhr0WjGsh2HYXYVDI-3" target="TNHnhr0WjGsh2HYXYVDI-23" edge="1">
          <mxGeometry width="50" height="50" relative="1" as="geometry">
            <mxPoint x="482.5" y="385.4200000000001" as="sourcePoint" />
            <mxPoint x="482.5" y="370.4200000000001" as="targetPoint" />
            <Array as="points">
              <mxPoint x="590" y="220" />
              <mxPoint x="590" y="160" />
            </Array>
          </mxGeometry>
        </mxCell>
        <mxCell id="TNHnhr0WjGsh2HYXYVDI-34" value="" style="rounded=0;whiteSpace=wrap;html=1;" parent="1" vertex="1">
          <mxGeometry x="203" y="600" width="457" height="180" as="geometry" />
        </mxCell>
        <mxCell id="TNHnhr0WjGsh2HYXYVDI-35" value="" style="endArrow=classic;html=1;rounded=0;entryX=0.237;entryY=-0.011;entryDx=0;entryDy=0;exitX=0;exitY=0.5;exitDx=0;exitDy=0;entryPerimeter=0;" parent="1" source="TNHnhr0WjGsh2HYXYVDI-8" target="TNHnhr0WjGsh2HYXYVDI-34" edge="1">
          <mxGeometry width="50" height="50" relative="1" as="geometry">
            <mxPoint x="387.4999999999998" y="370.4200000000001" as="sourcePoint" />
            <mxPoint x="387.5" y="385.4200000000001" as="targetPoint" />
            <Array as="points">
              <mxPoint x="310" y="330" />
            </Array>
          </mxGeometry>
        </mxCell>
        <mxCell id="TNHnhr0WjGsh2HYXYVDI-37" value="" style="endArrow=classic;html=1;rounded=0;entryX=1;entryY=0.5;entryDx=0;entryDy=0;exitX=0.75;exitY=0;exitDx=0;exitDy=0;" parent="1" source="TNHnhr0WjGsh2HYXYVDI-34" target="TNHnhr0WjGsh2HYXYVDI-8" edge="1">
          <mxGeometry width="50" height="50" relative="1" as="geometry">
            <mxPoint x="560" y="590" as="sourcePoint" />
            <mxPoint x="531.309" y="748.02" as="targetPoint" />
            <Array as="points">
              <mxPoint x="546" y="330" />
            </Array>
          </mxGeometry>
        </mxCell>
        <mxCell id="TNHnhr0WjGsh2HYXYVDI-38" value="Recommenation System" style="whiteSpace=wrap;html=1;aspect=fixed;" parent="1" vertex="1">
          <mxGeometry x="280" y="630" width="115" height="115" as="geometry" />
        </mxCell>
        <mxCell id="TNHnhr0WjGsh2HYXYVDI-39" value="Payment Gateway" style="whiteSpace=wrap;html=1;aspect=fixed;" parent="1" vertex="1">
          <mxGeometry x="470" y="630" width="120" height="120" as="geometry" />
        </mxCell>
        <mxCell id="TNHnhr0WjGsh2HYXYVDI-40" value="External APIs" style="text;html=1;strokeColor=none;fillColor=none;align=center;verticalAlign=middle;whiteSpace=wrap;rounded=0;" parent="1" vertex="1">
          <mxGeometry x="203" y="600" width="100" height="30" as="geometry" />
        </mxCell>
        <mxCell id="TNHnhr0WjGsh2HYXYVDI-43" value="" style="rounded=0;whiteSpace=wrap;html=1;rotation=90;" parent="1" vertex="1">
          <mxGeometry x="660" y="400" width="200" height="100" as="geometry" />
        </mxCell>
        <mxCell id="TNHnhr0WjGsh2HYXYVDI-44" value="" style="endArrow=classic;html=1;rounded=0;entryX=1;entryY=0.5;entryDx=0;entryDy=0;exitX=0.5;exitY=1;exitDx=0;exitDy=0;" parent="1" source="TNHnhr0WjGsh2HYXYVDI-43" target="TNHnhr0WjGsh2HYXYVDI-23" edge="1">
          <mxGeometry width="50" height="50" relative="1" as="geometry">
            <mxPoint x="720" y="230" as="sourcePoint" />
            <mxPoint x="530.5000000000002" y="170" as="targetPoint" />
            <Array as="points">
              <mxPoint x="590" y="450" />
              <mxPoint x="590" y="160" />
            </Array>
          </mxGeometry>
        </mxCell>
        <mxCell id="TNHnhr0WjGsh2HYXYVDI-45" value="Seller" style="text;html=1;strokeColor=none;fillColor=none;align=center;verticalAlign=middle;whiteSpace=wrap;rounded=0;" parent="1" vertex="1">
          <mxGeometry x="730" y="205" width="60" height="30" as="geometry" />
        </mxCell>
        <mxCell id="TNHnhr0WjGsh2HYXYVDI-46" value="Admin" style="text;html=1;strokeColor=none;fillColor=none;align=center;verticalAlign=middle;whiteSpace=wrap;rounded=0;" parent="1" vertex="1">
          <mxGeometry x="730" y="435" width="60" height="30" as="geometry" />
        </mxCell>
      </root>
    </mxGraphModel>
  </diagram>
</mxfile>
